<?xml version="1.0" encoding="UTF-8"?>
<svg version="1.1" xmlns="http://www.w3.org/2000/svg" width="378" height="396">
<path d="M0 0 C3.31600246 1.10533415 3.72377495 1.6248584 5.64453125 4.3671875 C6.4015332 5.43356445 6.4015332 5.43356445 7.17382812 6.52148438 C7.71458984 7.29814453 8.25535156 8.07480469 8.8125 8.875 C9.98470632 10.52933411 11.15791614 12.18295755 12.33203125 13.8359375 C13.24009521 15.11936035 13.24009521 15.11936035 14.16650391 16.42871094 C17.06174227 20.48898396 20.03084674 24.49363694 23 28.5 C30.28108268 38.352832 37.44832201 48.28576941 44.60449219 58.22949219 C50.6923875 66.68593036 56.80868741 75.11888909 63 83.5 C70.27942622 93.35407821 77.44830324 103.28574334 84.60449219 113.22949219 C91.27234294 122.49152195 97.98677039 131.71584893 104.76928711 140.89428711 C108.71407076 146.23835664 112.61959383 151.60903669 116.5 157 C127.34413192 172.23686065 127.34413192 172.23686065 138.6784668 187.10449219 C140 189 140 189 140.04296875 191.2421875 C138.4809178 195.37255442 135.94997445 198.60938377 133.3125 202.125 C132.73306641 202.91197266 132.15363281 203.69894531 131.55664062 204.50976562 C129.71200339 207.0122112 127.85612108 209.50606501 126 212 C124.24486116 214.37718282 122.49283665 216.75663799 120.7409668 219.13623047 C119.57299327 220.72202765 118.40387046 222.30697895 117.23364258 223.89111328 C113.28715734 229.23571011 109.38121196 234.60785394 105.5 240 C101.03979047 246.19654414 96.53740365 252.35976023 92 258.5 C85.26446941 267.61748366 78.62136363 276.79940769 72 286 C64.79936792 296.00550398 57.55749214 305.97688478 50.23291016 315.89208984 C44.09080366 324.21502749 38.04209317 332.60432215 32 341 C22.1079541 354.74530785 12.17266825 368.46029532 2 382 C-1.31600246 380.89466585 -1.72377495 380.3751416 -3.64453125 377.6328125 C-4.14919922 376.92189453 -4.65386719 376.21097656 -5.17382812 375.47851562 C-5.71458984 374.70185547 -6.25535156 373.92519531 -6.8125 373.125 C-7.98470632 371.47066589 -9.15791614 369.81704245 -10.33203125 368.1640625 C-10.93740723 367.30844727 -11.5427832 366.45283203 -12.16650391 365.57128906 C-15.06174227 361.51101604 -18.03084674 357.50636306 -21 353.5 C-28.28108268 343.647168 -35.44832201 333.71423059 -42.60449219 323.77050781 C-48.6923875 315.31406964 -54.80868741 306.88111091 -61 298.5 C-68.27942622 288.64592179 -75.44830324 278.71425666 -82.60449219 268.77050781 C-89.27234294 259.50847805 -95.98677039 250.28415107 -102.76928711 241.10571289 C-106.71407076 235.76164336 -110.61959383 230.39096331 -114.5 225 C-125.34413192 209.76313935 -125.34413192 209.76313935 -136.6784668 194.89550781 C-138 193 -138 193 -138.04296875 190.7578125 C-136.4809178 186.62744558 -133.94997445 183.39061623 -131.3125 179.875 C-130.73306641 179.08802734 -130.15363281 178.30105469 -129.55664062 177.49023438 C-127.71200339 174.9877888 -125.85612108 172.49393499 -124 170 C-122.24486116 167.62281718 -120.49283665 165.24336201 -118.7409668 162.86376953 C-117.57299327 161.27797235 -116.40387046 159.69302105 -115.23364258 158.10888672 C-111.28715734 152.76428989 -107.38121196 147.39214606 -103.5 142 C-99.03979047 135.80345586 -94.53740365 129.64023977 -90 123.5 C-83.26446941 114.38251634 -76.62136363 105.20059231 -70 96 C-62.79936792 85.99449602 -55.55749214 76.02311522 -48.23291016 66.10791016 C-42.09080366 57.78497251 -36.04209317 49.39567785 -30 41 C-20.1079541 27.25469215 -10.17266825 13.53970468 0 0 Z " fill="#0B0A0A" transform="translate(193,5)"/>
<path d="M0 0 C4.92303576 3.43787414 7.99053183 7.74412606 11.4375 12.5625 C12.68868934 14.28523814 13.93999459 16.0078921 15.19140625 17.73046875 C15.82578613 18.60880371 16.46016602 19.48713867 17.11376953 20.39208984 C20.01367097 24.40150573 22.94152552 28.3901085 25.875 32.375 C26.44516846 33.15020996 27.01533691 33.92541992 27.6027832 34.72412109 C32.05244142 40.75636101 36.57703897 46.72914668 41.125 52.6875 C41.79055908 53.5626123 42.45611816 54.43772461 43.1418457 55.33935547 C46.3007254 59.4883202 49.47915998 63.61761877 52.71484375 67.70703125 C53.28251465 68.43510986 53.85018555 69.16318848 54.43505859 69.91333008 C55.48949007 71.26529915 56.55558655 72.60828296 57.63525391 73.94018555 C61.04878892 78.35325409 61.04878892 78.35325409 60.81689453 81.42724609 C59.90696202 84.29301681 58.74957432 86.05432524 56.89453125 88.4140625 C56.24806641 89.24744141 55.60160156 90.08082031 54.93554688 90.93945312 C54.23494141 91.82568359 53.53433594 92.71191406 52.8125 93.625 C51.33850126 95.52239534 49.86587021 97.42085388 48.39453125 99.3203125 C47.65283691 100.27454102 46.91114258 101.22876953 46.14697266 102.21191406 C43.03042415 106.2591035 40.01120956 110.3741752 37 114.5 C31.37497853 122.18089144 25.64328306 129.77497386 19.84887695 137.32885742 C16.66458723 141.48344878 13.50707708 145.65108592 10.42578125 149.8828125 C9.87615723 150.63344971 9.3265332 151.38408691 8.76025391 152.1574707 C7.73744978 153.55894417 6.72234435 154.96607997 5.71630859 156.37963867 C4.54869115 157.97437703 3.28260161 159.49618683 2 161 C1.01 161 0.02 161 -1 161 C-2.5871582 159.3737793 -2.5871582 159.3737793 -4.30078125 157.07421875 C-4.94176758 156.2234375 -5.58275391 155.37265625 -6.24316406 154.49609375 C-6.92604492 153.56925781 -7.60892578 152.64242187 -8.3125 151.6875 C-9.36969238 150.27597656 -9.36969238 150.27597656 -10.44824219 148.8359375 C-12.64329677 145.89871265 -14.82359603 142.95106454 -17 140 C-17.67788574 139.08299316 -18.35577148 138.16598633 -19.05419922 137.22119141 C-21.53602049 133.8623494 -24.01675309 130.50285186 -26.48168945 127.1315918 C-29.24484282 123.35385925 -32.0365713 119.6251652 -35 116 C-33.64407586 112.2688104 -31.94871539 109.21117965 -29.69921875 105.9453125 C-28.72758789 104.52798828 -28.72758789 104.52798828 -27.73632812 103.08203125 C-27.06021484 102.10621094 -26.38410156 101.13039063 -25.6875 100.125 C-25.02298828 99.15691406 -24.35847656 98.18882812 -23.67382812 97.19140625 C-22.69639648 95.77021484 -22.69639648 95.77021484 -21.69921875 94.3203125 C-21.07063965 93.40282227 -20.44206055 92.48533203 -19.79443359 91.54003906 C-18.68442688 89.96881323 -17.53722688 88.42231371 -16.33447266 86.92089844 C-14.7150117 84.9707776 -14.7150117 84.9707776 -13 82 C-13.66406089 77.18941935 -17.80339348 72.82306923 -20.625 68.9375 C-21.70698253 67.42798092 -22.78770503 65.91755792 -23.8671875 64.40625 C-24.39795898 63.66375 -24.92873047 62.92125 -25.47558594 62.15625 C-28.75961052 57.51106981 -31.88282113 52.75828187 -35 48 C-33.6591927 45.15497821 -32.14231862 42.68050993 -30.26953125 40.15625 C-29.44654541 39.0427417 -29.44654541 39.0427417 -28.60693359 37.90673828 C-28.01477051 37.11251465 -27.42260742 36.31829102 -26.8125 35.5 C-26.19971191 34.6735498 -25.58692383 33.84709961 -24.95556641 32.99560547 C-22.9745221 30.32729078 -20.98803116 27.66311253 -19 25 C-18.31953613 24.08766602 -17.63907227 23.17533203 -16.93798828 22.23535156 C-14.91905326 19.53035207 -12.89782087 16.82709466 -10.875 14.125 C-10.24827393 13.28775391 -9.62154785 12.45050781 -8.97583008 11.58789062 C-6.04018781 7.67742518 -3.08691761 3.79337637 0 0 Z " fill="#E73E35" transform="translate(263,115)"/>
<path d="M0 0 C3.35927769 1.11975923 3.80914756 1.73602602 5.79296875 4.515625 C6.60350708 5.63602173 6.60350708 5.63602173 7.43041992 6.77905273 C8.01025635 7.59446533 8.59009277 8.40987793 9.1875 9.25 C10.43583947 10.9764623 11.68590876 12.70167485 12.9375 14.42578125 C13.92363281 15.78630615 13.92363281 15.78630615 14.9296875 17.17431641 C18.44979638 21.9787669 22.06806622 26.7076758 25.6875 31.4375 C26.71170044 32.77699707 26.71170044 32.77699707 27.7565918 34.14355469 C28.97461391 35.73615266 30.19326589 37.32826931 31.4128418 38.91967773 C31.936604 39.60618408 32.46036621 40.29269043 33 41 C33.56388428 41.70044434 34.12776855 42.40088867 34.70874023 43.12255859 C36 45 36 45 35.9609375 47.35546875 C34.72010082 50.77029164 32.79216561 53.44088233 30.625 56.3125 C29.72580058 57.54632008 28.82739533 58.78071924 27.9296875 60.015625 C26.43116686 62.05785667 24.92830706 64.09662383 23.41894531 66.13085938 C21.84545762 68.26280543 20.29652829 70.41094914 18.75 72.5625 C18.24807129 73.22870361 17.74614258 73.89490723 17.22900391 74.58129883 C15.66119621 76.6940682 15.66119621 76.6940682 14 80 C14.71517785 83.88239406 17.00437321 86.58167883 19.375 89.6875 C23.19313592 94.87026597 26.95657632 100.08488742 30.625 105.375 C31.1823584 106.14803467 31.7397168 106.92106934 32.31396484 107.7175293 C32.82137207 108.457854 33.3287793 109.19817871 33.8515625 109.9609375 C34.31385254 110.61884277 34.77614258 111.27674805 35.25244141 111.95458984 C36 114 36 114 35.32080078 116.49023438 C34.04121954 118.92167525 32.68450798 121.01539131 31.015625 123.1953125 C30.1169873 124.37963867 30.1169873 124.37963867 29.20019531 125.58789062 C28.55663086 126.42513672 27.91306641 127.26238281 27.25 128.125 C25.89506025 129.90826703 24.540914 131.69213721 23.1875 133.4765625 C22.49527344 134.38696289 21.80304688 135.29736328 21.08984375 136.23535156 C17.76980168 140.62742591 14.50850029 145.06217526 11.25 149.5 C10.10944018 151.05213123 8.96881973 152.60421792 7.828125 154.15625 C7.3527832 154.80400391 6.87744141 155.45175781 6.38769531 156.11914062 C4.93554718 158.08735829 3.46998702 160.04508 2 162 C-1.37779045 160.87406985 -1.85269787 160.20984612 -3.86328125 157.4140625 C-4.41290527 156.65818848 -4.9625293 155.90231445 -5.52880859 155.12353516 C-6.11742676 154.29901855 -6.70604492 153.47450195 -7.3125 152.625 C-8.5819033 150.87490718 -9.85143809 149.12490974 -11.12109375 147.375 C-12.09151611 146.02921875 -12.09151611 146.02921875 -13.08154297 144.65625 C-15.99008239 140.62915546 -18.92957809 136.62516427 -21.875 132.625 C-22.44645752 131.84785645 -23.01791504 131.07071289 -23.60668945 130.27001953 C-28.00989442 124.29934442 -32.4934798 118.39293342 -37 112.5 C-38.99865398 109.88002426 -40.99604708 107.25909834 -42.9921875 104.63720703 C-44.35029794 102.85336596 -45.70970952 101.07051487 -47.0703125 99.28857422 C-49.05706735 96.67906993 -51.03021479 94.05982722 -53 91.4375 C-53.60585937 90.64601563 -54.21171875 89.85453125 -54.8359375 89.0390625 C-55.38507813 88.30300781 -55.93421875 87.56695312 -56.5 86.80859375 C-56.9846875 86.16720459 -57.469375 85.52581543 -57.96875 84.86499023 C-59 83 -59 83 -59 79 C-57.96875 77.13500977 -57.96875 77.13500977 -56.5 75.19140625 C-55.95085937 74.45535156 -55.40171875 73.71929687 -54.8359375 72.9609375 C-54.23007813 72.16945313 -53.62421875 71.37796875 -53 70.5625 C-52.37351562 69.72847656 -51.74703125 68.89445312 -51.1015625 68.03515625 C-49.07850112 65.3484028 -47.04105298 62.67310547 -45 60 C-43.66666422 58.24869978 -42.33333087 56.49739771 -41 54.74609375 C-38.9910538 52.10992 -36.98074457 49.47482711 -34.96704102 46.84228516 C-29.98777357 40.32608823 -25.09882145 33.74876699 -20.24951172 27.13549805 C-13.57269553 18.03572111 -6.78675713 9.01792147 0 0 Z " fill="#4985E6" transform="translate(124,115)"/>
<path d="M0 0 C3.66190231 1.2206341 4.18075796 2.32980974 6.29296875 5.48828125 C6.91985596 6.41753418 7.54674316 7.34678711 8.19262695 8.30419922 C9.18008911 9.79330811 9.18008911 9.79330811 10.1875 11.3125 C11.19526489 12.80934326 11.19526489 12.80934326 12.22338867 14.33642578 C15.07678397 18.58149399 17.90569952 22.84165399 20.6953125 27.12890625 C21.39398438 28.20011719 22.09265625 29.27132813 22.8125 30.375 C23.68841797 31.74785156 23.68841797 31.74785156 24.58203125 33.1484375 C25.04996094 33.75945312 25.51789063 34.37046875 26 35 C26.66 35 27.32 35 28 35 C29.67681591 32.83679804 29.67681591 32.83679804 31.4375 30 C32.14390625 28.91332031 32.8503125 27.82664062 33.578125 26.70703125 C33.96419922 26.11229004 34.35027344 25.51754883 34.74804688 24.90478516 C37.00965424 21.46386069 39.35067079 18.07758708 41.6875 14.6875 C42.13859131 14.03072266 42.58968262 13.37394531 43.05444336 12.69726562 C45.99073855 8.43137809 48.97961515 4.20677024 52 0 C56.26960915 4.05493607 59.85060381 8.46228809 63.4375 13.125 C64.03860596 13.90182129 64.63971191 14.67864258 65.2590332 15.47900391 C71.50242074 23.58479549 77.56772743 31.82124594 83.59643555 40.08740234 C85.05050581 42.06882284 86.52215018 44.03627053 88 46 C86.66558629 48.82749964 85.16230649 51.29610568 83.3046875 53.80859375 C82.49064453 54.91267578 82.49064453 54.91267578 81.66015625 56.0390625 C81.07105469 56.83054687 80.48195313 57.62203125 79.875 58.4375 C79.25753906 59.27152344 78.64007813 60.10554688 78.00390625 60.96484375 C72.72257601 68.07717626 67.35084552 75.11933333 61.96875 82.15551758 C57.55054107 87.9400235 53.1869202 93.76086149 48.875 99.625 C48.31393555 100.38723877 47.75287109 101.14947754 47.17480469 101.93481445 C44.12823163 106.08114958 41.10063726 110.24059001 38.0859375 114.41015625 C37.44414551 115.29300293 36.80235352 116.17584961 36.14111328 117.08544922 C34.90220046 118.79011394 33.66859069 120.49864837 32.44091797 122.21142578 C31.88807129 122.97052246 31.33522461 123.72961914 30.765625 124.51171875 C30.27868164 125.18678467 29.79173828 125.86185059 29.29003906 126.55737305 C28.86432617 127.03343994 28.43861328 127.50950684 28 128 C27.34 128 26.68 128 26 128 C24.74169922 126.58911133 24.74169922 126.58911133 23.3046875 124.58203125 C22.76199219 123.83308594 22.21929687 123.08414063 21.66015625 122.3125 C21.07105469 121.4875 20.48195312 120.6625 19.875 119.8125 C18.60317002 118.05742772 17.3296709 116.30356404 16.0546875 114.55078125 C15.38920898 113.63506348 14.72373047 112.7193457 14.03808594 111.77587891 C10.75408886 107.30306545 7.37732764 102.90251451 4 98.5 C-1.64495952 91.12661859 -7.21537294 83.70606771 -12.67578125 76.19482422 C-15.86312487 71.828713 -19.13049078 67.54790437 -22.5 63.3203125 C-23.24894531 62.37091797 -23.99789062 61.42152344 -24.76953125 60.44335938 C-26.23100469 58.59668146 -27.70713684 56.76148921 -29.19921875 54.93945312 C-29.85535156 54.10607422 -30.51148438 53.27269531 -31.1875 52.4140625 C-31.77917969 51.6813916 -32.37085938 50.9487207 -32.98046875 50.19384766 C-34 48 -34 48 -33.34863281 45.45898438 C-32.10788376 43.19670624 -30.84638153 41.25159471 -29.234375 39.2421875 C-28.68056152 38.54319336 -28.12674805 37.84419922 -27.55615234 37.12402344 C-26.96012207 36.3818457 -26.3640918 35.63966797 -25.75 34.875 C-20.5100766 28.24791699 -15.38013807 21.55640113 -10.375 14.75 C-9.79588867 13.9647998 -9.21677734 13.17959961 -8.62011719 12.37060547 C-5.64097036 8.31044392 -2.75305582 4.21687574 0 0 Z " fill="#9C4EF5" transform="translate(167,242)"/>
<path d="M0 0 C3.35927769 1.11975923 3.80914756 1.73602602 5.79296875 4.515625 C6.60217773 5.63420898 6.60217773 5.63420898 7.42773438 6.77539062 C8.00845703 7.59201172 8.58917969 8.40863281 9.1875 9.25 C10.45018186 10.99597965 11.71456805 12.74072772 12.98046875 14.484375 C13.96926025 15.84852539 13.96926025 15.84852539 14.97802734 17.24023438 C18.25312015 21.71036829 21.62672698 26.10376575 25 30.5 C30.66277631 37.89831868 36.24126449 45.35127211 41.75048828 52.86450195 C48.42730447 61.96427889 55.21324287 70.98207853 62 80 C60.66558629 82.82749964 59.16230649 85.29610568 57.3046875 87.80859375 C56.76110596 88.5459375 56.21752441 89.28328125 55.6574707 90.04296875 C55.06925537 90.83316406 54.48104004 91.62335938 53.875 92.4375 C52.96077271 93.67113281 52.96077271 93.67113281 52.02807617 94.9296875 C47.15966712 101.48082855 42.24679285 107.99837678 37.3125 114.5 C36.62978027 115.40161865 35.94706055 116.3032373 35.24365234 117.23217773 C34.60250488 118.07337158 33.96135742 118.91456543 33.30078125 119.78125 C32.73528564 120.52439453 32.16979004 121.26753906 31.5871582 122.03320312 C30.14858588 123.81587327 28.65451899 125.4188556 27 127 C20.75651094 118.60618541 14.84369186 109.99870346 8.953125 101.35546875 C8.44458984 100.61087402 7.93605469 99.8662793 7.41210938 99.09912109 C6.52127244 97.77487906 5.64534309 96.44036972 4.79101562 95.09228516 C3.90685673 93.69781459 2.96032316 92.3431547 2 91 C1.34 91 0.68 91 0 91 C-1.54884613 92.8710584 -1.54884613 92.8710584 -3.125 95.3203125 C-4.05493774 96.70355713 -4.05493774 96.70355713 -5.00366211 98.11474609 C-5.66245361 99.10812988 -6.32124512 100.10151367 -7 101.125 C-8.35423847 103.14145179 -9.70970992 105.15707607 -11.06640625 107.171875 C-11.7330127 108.16380859 -12.39961914 109.15574219 -13.08642578 110.17773438 C-15.64570046 113.95232168 -18.27352053 117.67381541 -20.9375 121.375 C-21.35580078 121.95652832 -21.77410156 122.53805664 -22.20507812 123.13720703 C-23.13461725 124.42632261 -24.0669189 125.71344583 -25 127 C-29.38674174 122.89811162 -32.81084352 118.36642008 -36.3125 113.5 C-40.28848129 108.00003677 -44.31144796 102.5649609 -48.54296875 97.2578125 C-49.28571045 96.31744141 -50.02845215 95.37707031 -50.79370117 94.40820312 C-52.24687575 92.57505162 -53.71422655 90.75303552 -55.1965332 88.94335938 C-55.85355225 88.10869141 -56.51057129 87.27402344 -57.1875 86.4140625 C-57.77917969 85.6813916 -58.37085938 84.9487207 -58.98046875 84.19384766 C-60 82 -60 82 -59.34863281 79.45898438 C-58.10788376 77.19670624 -56.84638153 75.25159471 -55.234375 73.2421875 C-54.68152832 72.54440186 -54.12868164 71.84661621 -53.55908203 71.12768555 C-52.96208496 70.38429932 -52.36508789 69.64091309 -51.75 68.875 C-46.7566191 62.56075188 -41.87200628 56.18907178 -37.125 49.6875 C-32.15995503 42.89801804 -27.11336936 36.17848579 -22 29.5 C-14.54207547 19.75725677 -7.24008732 9.90541303 0 0 Z " fill="#79F140" transform="translate(193,24)"/>
<path d="M0 0 C3.38814736 1.12938245 3.74794896 1.68975265 5.64453125 4.55078125 C6.14911865 5.30157959 6.65370605 6.05237793 7.17358398 6.82592773 C7.71442627 7.64649658 8.25526855 8.46706543 8.8125 9.3125 C9.9859098 11.06061411 11.16042453 12.80798696 12.3359375 14.5546875 C13.24424316 15.90965332 13.24424316 15.90965332 14.17089844 17.29199219 C17.04219076 21.54297649 19.98727795 25.74107422 22.9375 29.9375 C24.10549803 31.60154195 25.27346658 33.26560459 26.44140625 34.9296875 C27.02422363 35.75952148 27.60704102 36.58935547 28.20751953 37.44433594 C30.04703724 40.06706427 31.88161694 42.6931837 33.71484375 45.3203125 C34.32392578 46.19236328 34.93300781 47.06441406 35.56054688 47.96289062 C36.75486014 49.67401113 37.94761127 51.38622319 39.13867188 53.09960938 C41.59628465 56.6237866 44.06150922 60.12519996 46.69140625 63.5234375 C47.80322266 64.96589844 47.80322266 64.96589844 48.9375 66.4375 C49.56527344 67.21996094 50.19304687 68.00242187 50.83984375 68.80859375 C52 71 52 71 52.05078125 73.27734375 C50.46278856 77.39195678 47.89567792 80.62248537 45.25 84.125 C44.0539157 85.74326088 42.85996773 87.36310255 41.66796875 88.984375 C41.05614746 89.81517578 40.44432617 90.64597656 39.81396484 91.50195312 C36.98071986 95.40367085 34.26844767 99.38439367 31.5625 103.375 C26.42984953 110.92723935 21.22974546 118.42856123 15.97583008 125.89697266 C13.35168299 129.62920845 10.73950212 133.36639978 8.1875 137.1484375 C7.56149902 138.07197021 7.56149902 138.07197021 6.92285156 139.01416016 C5.8339736 140.62571767 4.75260538 142.24234232 3.671875 143.859375 C3.12015625 144.56578125 2.5684375 145.2721875 2 146 C1.34 146 0.68 146 0 146 C-1.47363281 144.20605469 -1.47363281 144.20605469 -3.203125 141.671875 C-3.84636719 140.73730469 -4.48960937 139.80273438 -5.15234375 138.83984375 C-6.19068359 137.31037109 -6.19068359 137.31037109 -7.25 135.75 C-8.71320131 133.61955787 -10.17674887 131.4893535 -11.640625 129.359375 C-12.37603516 128.28494141 -13.11144531 127.21050781 -13.86914062 126.10351562 C-16.88267064 121.71442379 -19.93920308 117.3561937 -23 113 C-28.22090743 105.55041677 -33.42729731 98.09079113 -38.625 90.625 C-39.30046875 89.655625 -39.9759375 88.68625 -40.671875 87.6875 C-41.91614095 85.89918255 -43.15636378 84.10804188 -44.39160156 82.31347656 C-45.36735677 80.90997682 -46.3598063 79.5176307 -47.38183594 78.14746094 C-50.06098626 74.48282333 -50.06098626 74.48282333 -49.7590332 72.09228516 C-48.90048573 69.72568759 -47.79463411 67.9869157 -46.33203125 65.9375 C-45.49768555 64.75800781 -45.49768555 64.75800781 -44.64648438 63.5546875 C-43.73866211 62.29011719 -43.73866211 62.29011719 -42.8125 61 C-41.52718462 59.18761284 -40.24203285 57.37510965 -38.95703125 55.5625 C-38.29783691 54.63695312 -37.63864258 53.71140625 -36.95947266 52.7578125 C-33.94954632 48.52156431 -30.97548678 44.26047127 -28 40 C-26.84264507 38.34621618 -25.68509193 36.69257105 -24.52734375 35.0390625 C-23.95097168 34.21567383 -23.37459961 33.39228516 -22.78076172 32.54394531 C-11.39038086 16.27197266 -11.39038086 16.27197266 0 0 Z " fill="#FCF653" transform="translate(193,123)"/>
</svg>
